<?xml version="1.0" encoding="utf-8"?>
<!-- Generator: Adobe Illustrator 16.0.0, SVG Export Plug-In . SVG Version: 6.00 Build 0)  -->
<!DOCTYPE svg PUBLIC "-//W3C//DTD SVG 1.1//EN" "http://www.w3.org/Graphics/SVG/1.1/DTD/svg11.dtd">
<svg version="1.1" xmlns="http://www.w3.org/2000/svg" xmlns:xlink="http://www.w3.org/1999/xlink" x="0px" y="0px" width="40px"
	 height="40px" viewBox="0 0 40 40" enable-background="new 0 0 40 40" xml:space="preserve">
<g id="Layer_1">
	<g>
		<path fill="#FFFFFF" d="M19.641,37.493c-1.727-0.822-10.614-4.915-10.703-4.956l-0.206-0.095l-0.064-0.217
			c-0.82-2.748-6.146-17.907-6.2-18.06l-0.164-0.465l0.463-0.17c7.302-2.686,16.664-10.906,16.757-10.989l0.339-0.299l0.332,0.308
			c6.362,5.898,16.79,10.886,16.895,10.936l0.387,0.184l-5.288,17.81l-0.2,0.097c-3.66,1.756-11.826,5.871-11.908,5.912l-0.219,0.11
			L19.641,37.493z"/>
		<path d="M19.855,2.917c6.494,6.021,17.02,11.021,17.02,11.021l-5.103,17.188c-3.707,1.778-11.917,5.917-11.917,5.917
			c-1.75-0.833-10.709-4.959-10.709-4.959C8.313,29.291,2.939,14,2.939,14C10.417,11.25,19.855,2.917,19.855,2.917 M19.872,1.568
			l-0.678,0.599c-0.093,0.082-9.388,8.242-16.6,10.895l-0.925,0.34l0.327,0.93c0.054,0.153,5.375,15.3,6.192,18.038l0.129,0.433
			l0.411,0.189c0.09,0.041,8.973,4.133,10.698,4.954l0.442,0.21l0.438-0.221c0.082-0.041,8.243-4.154,11.899-5.908l0.399-0.191
			l0.127-0.426l5.103-17.187l0.243-0.82l-0.773-0.368C37.2,12.985,26.839,8.027,20.535,2.183L19.872,1.568L19.872,1.568z"/>
	</g>
	<path fill="#DFDED8" d="M19.855,36.542c-1.711-0.808-10.472-4.813-10.472-4.813C8.569,29.02,3.314,14.175,3.314,14.175
		C10.607,11.83,19.855,3.417,19.855,3.417V36.542z"/>
	<g>
		<path fill="#A9AAAD" d="M19.811,34.533c-1.48-0.693-9.056-4.133-9.056-4.133c-0.591-1.951-5.249-15.07-5.249-15.07
			c6.307-2.014,14.305-9.237,14.305-9.237V34.533z"/>
		<path fill="#A9AAAD" d="M19.855,34.533c1.48-0.693,9.056-4.133,9.056-4.133c0.591-1.951,5.249-15.07,5.249-15.07
			c-6.307-2.014-14.305-9.237-14.305-9.237V34.533z"/>
	</g>
	<g>
		<path fill="#EBC546" d="M19.896,33.393c-1.335-0.626-8.17-3.729-8.17-3.729c-0.419-1.385-4.735-13.597-4.735-13.597
			c5.689-1.817,12.905-8.334,12.905-8.334V33.393z"/>
		<path fill="#FFEF6B" d="M19.896,33.393c1.335-0.626,8.17-3.729,8.17-3.729c0.419-1.385,4.735-13.597,4.735-13.597
			c-5.689-1.817-12.905-8.334-12.905-8.334V33.393z"/>
	</g>
</g>
<g id="Layer_3">
	<g>
		<g>
			<path fill="#A15623" d="M19.896,10.292c0,0-6.916,5.5-12.087,7.462l0.988,3.055c0,0,8.058-4.225,11.099-6.517V10.292z"/>
			<path fill="#A15623" d="M19.981,17.513c0,0-5.855,3.92-10.17,6.042l0.832,2.473c0,0,6.779-3.42,9.338-5.275V17.513z"/>
			<polygon fill="#A15623" points="11.949,29.664 19.896,25.25 19.896,33.289 			"/>
		</g>
		<g>
			<path fill="#F07E31" d="M19.898,10.271c0,0,7.18,5.5,12.547,7.462l-1.025,3.055c0,0-8.364-4.225-11.521-6.517V10.271z"/>
			<path fill="#F07E31" d="M19.811,17.493c0,0,6.078,3.921,10.557,6.042l-0.863,2.473c0,0-7.037-3.42-9.693-5.276V17.493z"/>
			<polygon fill="#F07E31" points="28.148,29.645 19.898,25.23 19.898,33.27 			"/>
		</g>
	</g>
</g>
<g id="Layer_2">
</g>
</svg>
