<?xml version="1.0" encoding="utf-8"?>
<!-- Generator: Adobe Illustrator 16.0.0, SVG Export Plug-In . SVG Version: 6.00 Build 0)  -->
<!DOCTYPE svg PUBLIC "-//W3C//DTD SVG 1.1//EN" "http://www.w3.org/Graphics/SVG/1.1/DTD/svg11.dtd">
<svg version="1.1" id="Layer_1" xmlns="http://www.w3.org/2000/svg" xmlns:xlink="http://www.w3.org/1999/xlink" x="0px" y="0px"
	 width="84px" height="84px" viewBox="0 0 84 84" enable-background="new 0 0 84 84" xml:space="preserve">
<g>
	<circle fill="#FF6900" cx="42" cy="42" r="40"/>
	<g>
		<g>
			<g>
				<path fill="#FFFFFF" d="M68.174,39.535c0,0-2.378-10.107-6.599-20.581c0,0-5.222,1.567-9.406,7.471c0,0-3.107-1.357-10.07-1.549
					v-0.003c-0.013,0-0.018,0-0.029,0.003c-0.006-0.003-0.014-0.003-0.023-0.003v0.003c-0.015,0-0.029,0.004-0.044,0.004
					c-0.018,0-0.031-0.004-0.045-0.004v-0.003c-0.01,0-0.017,0-0.024,0.003c-0.01-0.003-0.015-0.003-0.027-0.003v0.003
					c-6.964,0.192-10.071,1.549-10.071,1.549c-4.185-5.903-9.407-7.471-9.407-7.471c-4.221,10.474-6.598,20.581-6.598,20.581
					c-2.578,10.207,0.991,16.068,0.991,16.068C23.556,67.67,41.412,67.676,41.932,67.67c0.013,0,0.041,0,0.07,0s0.056,0,0.068,0
					c0.521,0.006,18.377,0,25.111-12.066C67.181,55.604,70.751,49.742,68.174,39.535z M27.944,51.75
					c-3.414-1.707-5.455-5.057-5.671-8.613c2.973-1.953,6.879-2.32,10.293-0.613c3.411,1.71,5.457,5.055,5.673,8.607
					C35.259,53.09,31.356,53.463,27.944,51.75z M56.563,51.75c-3.416,1.713-7.316,1.34-10.295-0.619
					c0.213-3.553,2.26-6.897,5.672-8.607c3.416-1.707,7.316-1.34,10.295,0.613C62.019,46.693,59.978,50.043,56.563,51.75z"/>
			</g>
		</g>
		<g>
			<path fill="#FFFFFF" d="M28.639,47.1c-0.024,2.23,1.069,3.551,1.618,4.227c0.545-0.676,1.638-1.996,1.61-4.227
				c-0.026-1.984-1.051-3.443-1.61-4.149C29.697,43.656,28.667,45.115,28.639,47.1z"/>
		</g>
		<g>
			<path fill="#FFFFFF" d="M52.639,47.1c-0.026,2.23,1.067,3.551,1.616,4.227c0.543-0.676,1.64-1.996,1.609-4.227
				c-0.023-1.984-1.051-3.443-1.609-4.149C53.694,43.656,52.665,45.115,52.639,47.1z"/>
		</g>
	</g>
	<path id="tai_15_" fill="#FF6900" d="M63.997,34.339c0,0-2.918-4.058-8.338-6.585c0,0,3.475-7.13,4.479-5.785
		C60.138,21.97,63.163,26.156,63.997,34.339z"/>
	<path id="tai_14_" fill="#FF6900" d="M19.997,34.339c0,0,2.92-4.058,8.341-6.585c0,0-3.475-7.13-4.479-5.785
		C23.859,21.97,20.833,26.156,19.997,34.339z"/>
</g>
</svg>
