<?xml version="1.0" encoding="utf-8"?>
<!-- Generator: Adobe Illustrator 16.0.0, SVG Export Plug-In . SVG Version: 6.00 Build 0)  -->
<!DOCTYPE svg PUBLIC "-//W3C//DTD SVG 1.1//EN" "http://www.w3.org/Graphics/SVG/1.1/DTD/svg11.dtd">
<svg version="1.1" id="Layer_1" xmlns="http://www.w3.org/2000/svg" xmlns:xlink="http://www.w3.org/1999/xlink" x="0px" y="0px"
	 width="16px" height="16px" viewBox="0 0 16 16" enable-background="new 0 0 16 16" xml:space="preserve">
<g>
	<defs>
		<path id="SVGID_1_" d="M9.078,7.123c0,0,1.5,4.17-3.177,3.182c0,0-3.716-0.975-2.647-4.773c0,0,1.094-3.524,4.833-3.323
			c0,0,5.771-0.211,5.757,5.975c0,0-0.179,5.172-5.757,5.616c0,0-4.009,0.113-6.952-4.555c0,0,3.787,3.98,7.943,2.65
			c0,0,3.578-1.764,1.589-5.302c0,0-0.604-1.071-2.089-1.076C8.021,5.514,7.188,5.599,6.96,6.592c0,0-0.28,1.085,1.165,1.085
			C8.594,7.677,8.797,7.474,9.078,7.123L9.078,7.123z"/>
	</defs>
	<use xlink:href="#SVGID_1_"  overflow="visible" fill-rule="evenodd" clip-rule="evenodd" fill="#22B22F"/>
	
</g>
</svg>
