<?xml version="1.0" encoding="utf-8"?>
<!-- Generator: Adobe Illustrator 16.0.0, SVG Export Plug-In . SVG Version: 6.00 Build 0)  -->
<!DOCTYPE svg PUBLIC "-//W3C//DTD SVG 1.1//EN" "http://www.w3.org/Graphics/SVG/1.1/DTD/svg11.dtd">
<svg version="1.1" id="Layer_1" xmlns="http://www.w3.org/2000/svg" xmlns:xlink="http://www.w3.org/1999/xlink" x="0px" y="0px"
	 width="16px" height="16px" viewBox="0 0 16 16" enable-background="new 0 0 16 16" xml:space="preserve">
<g>
	<defs>
		<path id="SVGID_1_h4" d="M8.046,1.377c0,0,0.814,2.113,2.78,4.66c0,0,2.965,2.707,1.587,5.873c0,0-1.013,2.545-4.267,2.703
			c0,0-3.111,0.334-4.664-2.891c0,0-1.242-2.477,1.687-5.685C5.17,6.038,7.543,3.179,8.046,1.377L8.046,1.377z M6.261,6.411
			c0,0-1.633,2.302-0.992,4.38c0,0,0.554,2.066,2.581,2.891c0,0-3.495-0.252-3.671-3.449C4.178,10.232,3.989,8.25,6.261,6.411
			L6.261,6.411z"/>
	</defs>
	<use xlink:href="#SVGID_1_h4"  overflow="visible" fill-rule="evenodd" clip-rule="evenodd" fill="#14CCF7"/>
	
</g>
</svg>
