<?xml version="1.0" encoding="utf-8"?>
<!-- Generator: Adobe Illustrator 16.0.0, SVG Export Plug-In . SVG Version: 6.00 Build 0)  -->
<!DOCTYPE svg PUBLIC "-//W3C//DTD SVG 1.1//EN" "http://www.w3.org/Graphics/SVG/1.1/DTD/svg11.dtd">
<svg version="1.1" id="Layer_1" xmlns="http://www.w3.org/2000/svg" xmlns:xlink="http://www.w3.org/1999/xlink" x="0px" y="0px"
	 width="16px" height="16px" viewBox="0 0 16 16" enable-background="new 0 0 16 16" xml:space="preserve">
<g>
	<defs>
		<path id="SVGID_1_h6" d="M8,13.027c2.772,0,5.028-2.256,5.028-5.028c0-2.772-2.256-5.028-5.028-5.028
			C5.227,2.971,2.971,5.227,2.971,8C2.971,10.771,5.227,13.027,8,13.027 M8,13.76c-3.182,0-5.76-2.58-5.76-5.76
			c0-3.181,2.579-5.76,5.76-5.76S13.76,4.819,13.76,8C13.76,11.18,11.182,13.76,8,13.76L8,13.76L8,13.76z"/>
	</defs>
	<use xlink:href="#SVGID_1_h6"  overflow="visible" fill="#9F18D6"/>
</g>
<g>
	<defs>
		<path id="SVGID_3_h6" d="M8.936,10.615c0,0.443-0.359,0.805-0.804,0.805s-0.804-0.361-0.804-0.805s0.359-0.803,0.804-0.803
			S8.936,10.172,8.936,10.615L8.936,10.615z M13.49,8.918c-1.068,5.335-6.697,4.109-6.697,4.109c1.201,0.08,1.964-0.09,1.964-0.09
			c2.013-0.305,2.144-2.143,2.144-2.143c0.143-2.223-2.144-2.769-2.144-2.769C5.885,7.57,6.168,5.257,6.168,5.257
			C6.26,3.117,8.479,2.851,8.479,2.851C14.426,2.952,13.49,8.918,13.49,8.918L13.49,8.918z M8.132,4.454
			c-0.444,0-0.804,0.36-0.804,0.804s0.359,0.804,0.804,0.804s0.804-0.36,0.804-0.804S8.576,4.454,8.132,4.454L8.132,4.454z"/>
	</defs>
	<use xlink:href="#SVGID_3_h6"  overflow="visible" fill-rule="evenodd" clip-rule="evenodd" fill="#9F18D6"/>
</g>
</svg>
