<?xml version="1.0" encoding="utf-8"?>
<!-- Generator: Adobe Illustrator 16.0.0, SVG Export Plug-In . SVG Version: 6.00 Build 0)  -->
<!DOCTYPE svg PUBLIC "-//W3C//DTD SVG 1.1//EN" "http://www.w3.org/Graphics/SVG/1.1/DTD/svg11.dtd">
<svg version="1.1" id="Layer_2" xmlns="http://www.w3.org/2000/svg" xmlns:xlink="http://www.w3.org/1999/xlink" x="0px" y="0px"
	 width="40px" height="40px" viewBox="0 0 40 40" enable-background="new 0 0 40 40" xml:space="preserve">
<path fill="#EF3737" stroke="#000000" stroke-width="1.2" stroke-miterlimit="10" d="M20.234,12.049c0,0-4.359-5.674-10.424-4.428
	c0,0-7.186,2.254-5.367,11.216c0,0,1.369,8.975,16.117,16.549c0,0,13.314-7.387,14.922-16.036c0,0,2.83-10.351-6.257-12.06
	C29.226,7.292,24.25,6.375,20.234,12.049z"/>
<path fill="#932A2A" d="M6.818,20.595c0,0,7.276,9.968,13.417,12c0,0,1.791,0.667,8.99-7.035c0,0-3.657,2.91-6.865,4.035
	C22.36,29.595,17.193,31.47,6.818,20.595z"/>
<circle fill="#FFD655" cx="28.775" cy="13.866" r="2.854"/>
<circle fill="#FFD655" cx="24.358" cy="19.313" r="1.563"/>
</svg>
