<?xml version="1.0" encoding="utf-8"?>
<!-- Generator: Adobe Illustrator 16.0.0, SVG Export Plug-In . SVG Version: 6.00 Build 0)  -->
<!DOCTYPE svg PUBLIC "-//W3C//DTD SVG 1.1//EN" "http://www.w3.org/Graphics/SVG/1.1/DTD/svg11.dtd">
<svg version="1.1" id="Layer_1" xmlns="http://www.w3.org/2000/svg" xmlns:xlink="http://www.w3.org/1999/xlink" x="0px" y="0px"
	 width="50px" height="50px" viewBox="0 0 50 50" enable-background="new 0 0 50 50" xml:space="preserve">
<g>
	<circle fill="none" stroke="#4D4D4D" stroke-width="1.9435" stroke-miterlimit="10" cx="25" cy="25" r="22.269"/>
	<circle fill="none" stroke="#4D4D4D" stroke-width="1.7006" stroke-miterlimit="10" cx="24.999" cy="24.258" r="8.196"/>
	<g>
		<path fill="#4D4D4D" d="M20.144,14.876c2.753,0,5.732,0.489,8.627,1.914c8.105,3.992,10.045,11.637,11.104,14.979
			c-2.326,0.693-6.205,1.449-10.324,1.449c-2.797,0-5.703-0.349-8.309-1.301c-8.415-3.076-10.06-11.831-11.117-15.174
			C12.142,16.055,15.871,14.876,20.144,14.876 M20.144,12.933c-4.366,0-8.168,1.126-10.647,1.973l-1.798,0.613l0.573,1.812
			c0.104,0.33,0.214,0.715,0.337,1.143c1.132,3.951,3.489,12.172,11.966,15.271c2.576,0.941,5.595,1.419,8.976,1.419
			c5.328,0,9.674-1.171,10.879-1.53l1.896-0.564l-0.598-1.885l-0.189-0.608c-1.143-3.699-3.521-11.396-11.91-15.527
			C26.779,13.644,23.588,12.933,20.144,12.933L20.144,12.933z"/>
	</g>
	<path fill="#4D4D4D" d="M26.602,24.258C26.59,21,25.48,19.135,25,18.252c-0.479,0.883-1.59,2.748-1.602,6.006
		c0.012,3.256,1.122,5.121,1.602,6.004C25.48,29.379,26.59,27.514,26.602,24.258z"/>
</g>
</svg>
