<?xml version="1.0" encoding="utf-8"?>
<!-- Generator: Adobe Illustrator 16.0.0, SVG Export Plug-In . SVG Version: 6.00 Build 0)  -->
<!DOCTYPE svg PUBLIC "-//W3C//DTD SVG 1.1//EN" "http://www.w3.org/Graphics/SVG/1.1/DTD/svg11.dtd">
<svg version="1.1" id="Layer_1" xmlns="http://www.w3.org/2000/svg" xmlns:xlink="http://www.w3.org/1999/xlink" x="0px" y="0px"
	 width="16px" height="16px" viewBox="0 0 16 16" enable-background="new 0 0 16 16" xml:space="preserve">
<g>
	<defs>
		<path id="SVGID_1_n1" d="M8.042,10.105l-1.04-1.04L6.93,9.64L8.042,10.105 M4.617,5.931c0.21,0,0.407-0.052,0.586-0.154l0.29-0.165
			L5.656,5.32c0.099-0.177,0.15-0.372,0.15-0.578c0-0.656-0.533-1.188-1.189-1.188c-0.655,0-1.188,0.533-1.188,1.188
			C3.429,5.397,3.962,5.931,4.617,5.931 M13.942,14.068L5.44,10.502l0.442-3.534C5.509,7.181,5.077,7.302,4.617,7.302
			c-1.413,0-2.56-1.146-2.56-2.56s1.146-2.561,2.56-2.561c1.415,0,2.561,1.146,2.561,2.561c0,0.453-0.118,0.879-0.325,1.249
			l3.617-0.518L13.942,14.068L13.942,14.068L13.942,14.068z M9.829,6.571L6.903,7.028l5.211,5.21L9.829,6.571L9.829,6.571
			L9.829,6.571z"/>
	</defs>
	<use xlink:href="#SVGID_1_n1"  overflow="visible"/>
	<clipPath id="SVGID_2_">
		<use xlink:href="#SVGID_1_"  overflow="visible"/>
	</clipPath>
</g>
</svg>
