<?xml version="1.0" encoding="utf-8"?>
<!-- Generator: Adobe Illustrator 16.0.0, SVG Export Plug-In . SVG Version: 6.00 Build 0)  -->
<!DOCTYPE svg PUBLIC "-//W3C//DTD SVG 1.1//EN" "http://www.w3.org/Graphics/SVG/1.1/DTD/svg11.dtd">
<svg version="1.1" id="Layer_1" xmlns="http://www.w3.org/2000/svg" xmlns:xlink="http://www.w3.org/1999/xlink" x="0px" y="0px"
	 width="16px" height="16px" viewBox="0 0 16 16" enable-background="new 0 0 16 16" xml:space="preserve">
<g>
	<defs>
		<path id="SVGID_1_n2" d="M2.468,2.989l1.054,3.688l2.032,1.279c0,0,0.248,1.464-0.526,2.634l-1.881,2.785l3.612-1.054l1.28-2.032
			c0,0,1.511-0.283,2.333,0.376l3.16,1.957L12.478,9.16l-2.032-1.354c0,0-0.272-1.58,0.302-2.257l2.106-3.236L9.241,3.44
			L7.888,5.472c0,0-1.073,0.152-1.958-0.225L2.468,2.989L2.468,2.989z M7.954,7.066c0.455,0,0.823,0.369,0.823,0.823
			S8.408,8.712,7.954,8.712c-0.455,0-0.823-0.368-0.823-0.823S7.499,7.066,7.954,7.066L7.954,7.066z"/>
	</defs>
	<use xlink:href="#SVGID_1_n2"  overflow="visible" fill-rule="evenodd" clip-rule="evenodd"/>
	<clipPath id="SVGID_2_">
		<use xlink:href="#SVGID_1_"  overflow="visible"/>
	</clipPath>
</g>
</svg>
