<?xml version="1.0" encoding="utf-8"?>
<!-- Generator: Adobe Illustrator 16.0.0, SVG Export Plug-In . SVG Version: 6.00 Build 0)  -->
<!DOCTYPE svg PUBLIC "-//W3C//DTD SVG 1.1//EN" "http://www.w3.org/Graphics/SVG/1.1/DTD/svg11.dtd">
<svg version="1.1" xmlns="http://www.w3.org/2000/svg" xmlns:xlink="http://www.w3.org/1999/xlink" x="0px" y="0px" width="40px"
	 height="40px" viewBox="0 0 40 40" enable-background="new 0 0 40 40" xml:space="preserve">
<g id="Layer_7">
	<path fill="#010000" d="M5.124,8.41l0.072-0.028l14.727-5.604l5.543,4.365l-0.217,2.488l-0.263,0.371c0,0,2.367,4.224,3.154,4.922
		c3.666,2.662,3.274,2.62,4.048,3.089l0.786-0.438l0.335,0.422l3.377,4.03L20.839,36.74l-7.312-0.304l-7.313-8.73l-0.393-2.271
		l3.624,0.044l0.742,0.7c0,0,6.46-2.707,6.286-4.846c0,0-0.289-2.63-1.614-3.319l-3.712-0.925L4.6,11.046L5.124,8.41z"/>
</g>
<g id="Layer_3">
	<path fill="#5CACF4" d="M9.606,27.119c0,0,8.434-2.884,7.702-6.285c0,0-0.388-2.624-3.098-4.43l9.595-7.058
		c0,0,2.539,4.775,3.959,6.11c0,0,3.957,2.367,4.777,4.303L15.802,34.002l-6.196-6.625"/>
	<g id="Layer_5">
		<path fill="#E8EAED" d="M21.418,13.42c0,0,5.486,5.694,6.948,7.027l-1.29,0.387l-6.757-6.969l0.86-0.445"/>
	</g>
	<path fill="#47739B" d="M18.647,14.086c0,0,4.47,3.995,5.459,5.114c0,0,2.422,0.807,3.228,1.808c0,0-8.047,6.926-9.208,7.959
		c0,0-5.959-1.373-7.132-2.387c0,0,5.798,0.45,7.906-1.27c0,0,2.582-3.443-0.56-7.401l-2.28-2.196L18.647,14.086"/>
	<g id="Layer_4">
		<path fill="#14538D" d="M10.248,27.119l1.383-0.505l6.366,1.795l8.432-7.445l4.777-2.71c0,0,1.356,0.947,1.021,0.947
			c-0.333,0-16.554,13.856-16.554,13.856l-5.645-5.938"/>
		<polygon fill="#14538D" points="14.252,16.834 23.72,9.519 24.652,10.873 16.104,17.609 		"/>
	</g>
	<polyline fill="#5CACF4" points="10.028,26.965 10.994,26.581 10.724,27.377 	"/>
</g>
<g id="Layer_2">
	<polygon fill="#D4D5D8" points="5.775,9.046 19.889,3.496 24.924,7.497 24.58,9.563 14.424,17.308 11.584,16.49 5.604,10.81 	"/>
	<path fill="#B1B6B7" d="M5.969,9.028l-0.171,1.764l5.98,5.68l2.84,0.817l9.488-7.564l-1.7-0.224c0,0-7.96,5.594-8.218,5.679
		l-2.969-1.634L5.969,9.028z"/>
	<polyline fill="#D4D5D8" points="6.723,25.61 8.917,25.956 15.931,32.323 32.584,18.254 35.638,21.913 20.535,35.983 13.908,35.68 
		6.981,27.119 6.723,25.827 8.96,26.387 	"/>
	<polygon fill="#FFFFFF" points="24.709,25.354 31.895,19.201 32.756,19.201 35.209,21.675 28.925,27.119 	"/>
	<polygon fill="#8F979A" points="24.45,25.526 28.755,27.119 27.463,28.71 22.643,27.119 	"/>
	<polyline fill="#FFFFFF" points="6.723,25.827 9.089,25.827 15.263,32.712 13.479,33.057 6.723,25.998 	"/>
</g>
<g id="Layer_6">
	<path fill="#FFFFFF" d="M6.422,8.986l13.597-5.12l0.817,0.688c0,0-12.12,5.578-13.073,5.586c-0.953,0.008,0,0,0,0L6.422,8.986"/>
</g>
</svg>
