<?xml version="1.0" encoding="utf-8"?>
<!-- Generator: Adobe Illustrator 16.0.0, SVG Export Plug-In . SVG Version: 6.00 Build 0)  -->
<!DOCTYPE svg PUBLIC "-//W3C//DTD SVG 1.1//EN" "http://www.w3.org/Graphics/SVG/1.1/DTD/svg11.dtd">
<svg version="1.1" id="Layer_1" xmlns="http://www.w3.org/2000/svg" xmlns:xlink="http://www.w3.org/1999/xlink" x="0px" y="0px"
	 width="50px" height="50px" viewBox="0 0 50 50" enable-background="new 0 0 50 50" xml:space="preserve">
<g>
	<g>
		<path fill="#4D4D4D" d="M20.682,14.278c1.46,0,4.318,0.737,4.499,6.463c0,0,0.229-4.971,4.709-4.971
			c0.133,0,0.27,0.005,0.412,0.014c0,0,2.832,1.652,0.787,6.295c0,0,1.504-1.414,3.061-1.414c0.961,0,1.943,0.538,2.604,2.279
			c0,0,1.18,3.698-3.227,7.159c0,0-1.18,1.416-0.943,3.541l0.551,5.351H16.139l0.395-6.767c0,0-0.315-2.676-1.652-3.698
			c0,0-5.35-4.249-0.709-7.632c0,0,0.814-0.496,1.896-0.496c0.84,0,1.841,0.299,2.747,1.361c0,0-3.068-4.957,1.022-7.396
			C19.837,14.367,20.175,14.278,20.682,14.278 M20.682,12.578c-0.69,0-1.184,0.12-1.275,0.144l-0.233,0.062l-0.207,0.123
			c-1.452,0.866-2.414,2.122-2.783,3.633c-0.18,0.738-0.207,1.472-0.143,2.162c-1.47,0.008-2.551,0.622-2.754,0.745l-0.06,0.037
			l-0.057,0.041c-2.098,1.528-2.566,3.257-2.591,4.438c-0.065,3.178,2.905,5.631,3.244,5.9c0.489,0.374,0.882,1.617,1.003,2.43
			l-0.385,6.604l-0.105,1.799h1.803h16.996h1.885l-0.193-1.874l-0.551-5.351c-0.121-1.102,0.316-1.909,0.49-2.18
			c5.053-4.104,3.672-8.669,3.609-8.863l-0.014-0.044l-0.018-0.043c-1.115-2.938-3.105-3.377-4.193-3.377
			c-0.213,0-0.422,0.017-0.627,0.046c0.002-2.534-1.359-4.108-2.365-4.694l-0.346-0.202l-0.4-0.026
			c-0.18-0.012-0.354-0.017-0.521-0.017c-1.854,0-3.213,0.635-4.19,1.547C24.189,12.864,21.658,12.578,20.682,12.578L20.682,12.578z
			"/>
	</g>
	<path fill="none" stroke="#4D4D4D" stroke-width="1.7006" stroke-miterlimit="10" d="M12.406,21.858c0,0-1.202-2.672-0.551-4.046
		c0,0,1.136,1.936,1.716,2.221"/>
	<path fill="none" stroke="#4D4D4D" stroke-width="1.7006" stroke-miterlimit="10" d="M37.355,22.02c0,0,0.9-2.786,0.104-4.082
		c0,0-0.916,2.05-1.461,2.396"/>
	<path fill="none" stroke="#4D4D4D" stroke-width="1.7006" stroke-miterlimit="10" d="M18.899,14.432c0,0-0.652-2.856,0.255-4.076
		c0,0,1.079,2.596,1.593,2.989"/>
	<path fill="none" stroke="#4D4D4D" stroke-width="1.7006" stroke-miterlimit="10" d="M31.82,16.3c0,0,0.182-3.029-0.844-4.151
		c0,0-0.932,2.412-1.402,2.855"/>
	<circle fill="none" stroke="#4D4D4D" stroke-width="1.9435" stroke-miterlimit="10" cx="25" cy="25" r="22.269"/>
</g>
</svg>
