<?xml version="1.0" encoding="utf-8"?>
<!-- Generator: Adobe Illustrator 16.0.0, SVG Export Plug-In . SVG Version: 6.00 Build 0)  -->
<!DOCTYPE svg PUBLIC "-//W3C//DTD SVG 1.1//EN" "http://www.w3.org/Graphics/SVG/1.1/DTD/svg11.dtd">
<svg version="1.1" id="Layer_1" xmlns="http://www.w3.org/2000/svg" xmlns:xlink="http://www.w3.org/1999/xlink" x="0px" y="0px"
	 width="40px" height="40px" viewBox="0 0 40 40" enable-background="new 0 0 40 40" xml:space="preserve">
<polygon fill="#FFFFFF" stroke="#26221E" stroke-width="1.3" stroke-miterlimit="10" points="12.808,20.395 23.808,6.396 
	34.308,4.521 34.308,15.271 20.308,27.27 "/>
<polygon fill="#96C7E2" points="16.842,23.251 28.46,10.081 33.58,5.369 33.563,14.875 20.171,26.396 "/>
<polygon fill="#E8B128" stroke="#26221E" stroke-width="1.2" stroke-miterlimit="10" points="7.916,22.357 10.707,19.648 
	12.207,19.648 21.331,28.107 21.331,29.773 18.5,32.648 17.082,32.648 7.707,23.773 "/>
<polygon fill="#BF7F40" points="8.471,22.603 10.403,21.262 11.639,22.033 18.861,28.484 19.843,29.987 18.271,31.583 
	16.991,31.883 8.249,23.609 "/>
<polygon fill="#5E462E" stroke="#26221E" stroke-width="1.2" stroke-miterlimit="10" points="9.398,25.896 14.96,31.146 
	11.273,35.271 9.94,35.479 5.262,31.356 5.273,30.271 "/>
<path fill="#B28964" d="M5.75,30.438l3.656-3.79l0.837,0.784L6.915,30.76c0,0-0.286,0.627,0.148,1.396c0,0-0.593-0.361-1.234-1.031
	C5.686,30.977,5.783,30.675,5.75,30.438z"/>
<path fill="#B28964" d="M14.25,31.156l-3.203,3.641l-0.936,0.141l-0.314-0.203c0,0,0.813,0.078,1.25-0.297L14.25,31.156z"/>
<path fill="#8C5B37" d="M16.745,25.786c0,0,3.451,3.843,2.69,4.615c0,0-6.919-4.995-8.278-6.651c0,0-1.91-2.028-0.219-2.094"/>
<path fill="#F7D857" d="M9.797,22.094c5.109,3.781,7.045,3.802,7.045,3.802c-0.845-0.979-5.124-5.208-5.124-5.208
	c-1.031-0.188-1.922,1.281-1.922,1.281"/>
</svg>
