<?xml version="1.0" encoding="utf-8"?>
<!-- Generator: Adobe Illustrator 16.0.0, SVG Export Plug-In . SVG Version: 6.00 Build 0)  -->
<!DOCTYPE svg PUBLIC "-//W3C//DTD SVG 1.1//EN" "http://www.w3.org/Graphics/SVG/1.1/DTD/svg11.dtd">
<svg version="1.1" id="Layer_1" xmlns="http://www.w3.org/2000/svg" xmlns:xlink="http://www.w3.org/1999/xlink" x="0px" y="0px"
	 width="84px" height="84px" viewBox="0 0 84 84" enable-background="new 0 0 84 84" xml:space="preserve">
<g>
	<path fill="#5F752A" stroke="#3C4422" stroke-width="1.6831" stroke-miterlimit="10" d="M29.061,17.985
		c0,0-3.448-7.013-10.094-7.503l-1.686,1.577l-1.119,2.631c0,0,9.661,0.701,12.898,7.924V17.985z"/>
	<g>
		<path fill="#96CC4A" d="M74.945,75.943c-3.802-2.276-12.181-6.513-24.16-8.207c-0.29-0.075-37.148-9.322-42.272-31.875
			c-0.008-0.043-1.31-7.161,2.764-12.085c2.654-3.209,7.018-4.836,12.97-4.836c0.859,0,1.764,0.034,2.688,0.103l0.589,0.043
			l0.242-0.54c0.03-0.068,3.133-6.857,9.385-9.052c1.42-0.498,3.087-0.762,4.818-0.762c3.513,0,12.521,1.152,20.291,11.819
			c10.435,15.388,11.105,34.185,11.507,45.415c0.044,1.243,0.086,2.394,0.136,3.438C74.021,70.628,74.354,73.628,74.945,75.943z"/>
		<path fill="#404C25" d="M41.968,9.573c3.382,0,12.056,1.116,19.595,11.45c10.3,15.207,10.965,33.838,11.362,44.973
			c0.044,1.247,0.086,2.401,0.137,3.447l0.002,0.041l0.004,0.041c0.147,1.518,0.356,3.197,0.646,4.747
			c-4.378-2.393-12.177-5.853-22.722-7.357c-1.864-0.475-36.72-9.65-41.651-31.208c-0.075-0.42-1.143-6.877,2.577-11.386
			c2.486-3.013,6.634-4.541,12.329-4.541c0.839,0,1.723,0.034,2.626,0.101l1.179,0.087l0.481-1.081
			c0.029-0.065,2.963-6.517,8.895-8.6C38.76,9.82,40.33,9.573,41.968,9.573 M41.968,7.89c-1.887,0-3.617,0.29-5.097,0.809
			c-6.685,2.347-9.875,9.503-9.875,9.503c-0.964-0.071-1.877-0.105-2.75-0.105c-20.025,0-16.554,17.95-16.554,17.95
			c5.301,23.333,42.975,32.522,42.975,32.522c16.37,2.315,26.064,9.541,26.064,9.541c-1.248-1.155-1.989-8.748-1.989-8.748
			c-0.51-10.525-0.056-31.983-11.803-49.307C56.474,11.179,48.325,7.89,41.968,7.89L41.968,7.89z"/>
	</g>
	<g>
		<path fill="#96CC4A" d="M74.946,75.944c-3.802-2.276-12.182-6.515-24.16-8.209c-0.291-0.075-37.15-9.321-42.273-31.875
			c-0.008-0.043-1.312-7.16,2.76-12.084c2.655-3.21,7.02-4.838,12.973-4.838c0.853,0,1.748,0.034,2.688,0.103l0.588,0.043
			l0.242-0.539c0.03-0.068,3.134-6.857,9.384-9.052c1.421-0.498,3.086-0.762,4.819-0.762c3.513,0,12.521,1.152,20.291,11.819
			c10.436,15.39,11.106,34.187,11.507,45.418c0.045,1.242,0.086,2.392,0.137,3.436C74.021,70.628,74.354,73.628,74.946,75.944z"/>
		<path fill="#404C25" d="M41.968,9.573L41.968,9.573c3.384,0,12.069,1.119,19.577,11.427
			c10.316,15.213,10.981,33.858,11.379,44.999c0.045,1.246,0.086,2.399,0.144,3.529c0.147,1.516,0.356,3.195,0.646,4.745
			c-4.378-2.392-12.178-5.854-22.722-7.357c-1.86-0.473-36.755-9.658-41.646-31.184c-0.013-0.067-1.234-6.82,2.584-11.428
			c2.488-3.001,6.631-4.523,12.316-4.523c0.839,0,1.723,0.035,2.627,0.101l1.179,0.087l0.481-1.08
			c0.029-0.065,2.963-6.517,8.894-8.6C38.759,9.82,40.33,9.573,41.968,9.573 M41.968,7.89c-1.888,0-3.616,0.29-5.097,0.81
			c-6.685,2.347-9.875,9.503-9.875,9.503c-0.962-0.071-1.878-0.105-2.75-0.105c-20.029,0-16.784,18.662-16.784,18.662
			c5.301,23.334,43.47,32.54,43.47,32.54c15.043,2.63,25.8,8.812,25.8,8.812c-1.248-1.155-1.989-8.748-1.989-8.748
			c-0.51-10.525-0.056-31.983-11.803-49.307C56.475,11.179,48.325,7.89,41.968,7.89L41.968,7.89z"/>
	</g>
	<g>
		<linearGradient id="SVGID_1_" gradientUnits="userSpaceOnUse" x1="20.9922" y1="16.1709" x2="76.7583" y2="71.937">
			<stop  offset="0" style="stop-color:#E9FF94"/>
			<stop  offset="0.0948" style="stop-color:#E0F992;stop-opacity:0.8739"/>
			<stop  offset="0.2495" style="stop-color:#C8E98E;stop-opacity:0.6681"/>
			<stop  offset="0.4449" style="stop-color:#A0CF87;stop-opacity:0.4082"/>
			<stop  offset="0.6712" style="stop-color:#69AC7D;stop-opacity:0.1071"/>
			<stop  offset="0.7517" style="stop-color:#549E79;stop-opacity:0"/>
			<stop  offset="1" style="stop-color:#0EBF00;stop-opacity:0.5"/>
		</linearGradient>
		<path fill="url(#SVGID_1_)" d="M61.465,21.31c10.883,15.858,10.462,35.5,10.936,45.135c0,0,0.684,6.947,1.841,8.008
			c0,0-8.981-6.61-24.145-8.732c0,0-34.905-8.416-39.814-29.773c0,0-3.506-17.891,17.883-16.335c0,0,2.955-6.551,9.148-8.697
			C43.306,8.838,53.693,10.772,61.465,21.31z"/>
		<linearGradient id="SVGID_2_" gradientUnits="userSpaceOnUse" x1="20.9927" y1="16.1724" x2="76.7581" y2="71.9378">
			<stop  offset="0" style="stop-color:#D2FF95"/>
			<stop  offset="0.5169" style="stop-color:#63BF00;stop-opacity:0.7"/>
			<stop  offset="1" style="stop-color:#559400"/>
		</linearGradient>
		<path fill="url(#SVGID_2_)" d="M42.036,11.521L42.036,11.521c3.168,0,11.297,1.032,18.318,10.551
			c9.584,13.966,10.204,31.064,10.574,41.28c0.041,1.143,0.08,2.2,0.127,3.16l0.002,0.032l0.003,0.033
			c0.13,1.32,0.347,3.107,0.681,4.751c-3.95-2.182-11.309-5.51-21.388-6.931c-1.616-0.406-34.187-8.862-38.749-28.706
			c-0.012-0.062-1.151-6.272,2.391-10.558c2.343-2.834,6.254-4.271,11.625-4.271c0.782,0,1.605,0.031,2.448,0.092l0.938,0.068
			l0.387-0.857c0.027-0.061,2.781-6.044,8.361-7.979C39.012,11.751,40.492,11.521,42.036,11.521 M42.035,10.174
			c-1.748,0-3.35,0.265-4.722,0.741c-6.193,2.146-9.148,8.697-9.148,8.697c-0.892-0.065-1.738-0.096-2.545-0.096
			c-18.556,0-15.337,16.431-15.337,16.431c4.909,21.357,39.814,29.773,39.814,29.773c15.163,2.122,24.145,8.732,24.145,8.732
			c-1.157-1.061-1.841-8.008-1.841-8.008c-0.474-9.635-0.053-29.277-10.936-45.135C55.472,13.185,47.924,10.174,42.035,10.174
			L42.035,10.174z"/>
	</g>
	<linearGradient id="SVGID_3_" gradientUnits="userSpaceOnUse" x1="13.0244" y1="43.1094" x2="71.4355" y2="43.1094">
		<stop  offset="0" style="stop-color:#88A82E"/>
		<stop  offset="0.5017" style="stop-color:#549E0D;stop-opacity:0.4"/>
		<stop  offset="1" style="stop-color:#88A879"/>
	</linearGradient>
	<path fill="url(#SVGID_3_)" d="M71.436,71.053c-6.833-10.791-28.112-34.484-37.417-44.681c3.986-1.204,4.688-1.206,26.688-2.292
		c-3.782-0.545-12.006-0.161-18.002,0.235c2.032-2.301,9.015-9.149,9.015-9.149c-3.289,1.992-8.211,7.436-9.66,9.08
		c0.397,0.043,0.645,0.069,0.645,0.069l0,0c-0.253,0.017-0.507,0.034-0.75,0.05c0.03-0.035,0.069-0.08,0.105-0.119
		c-2.12-0.23-8.964-0.979-11.216-1.338c-0.422-0.458-0.745-0.808-0.957-1.036l0.143-0.173l-0.227,0.082
		c-0.131-0.142-0.222-0.24-0.222-0.24c-0.331,0.098-0.449,0.306-0.493,0.498l-1.238,0.449c0,0-5.417,6.891-6.68,11.361
		c0,0-6.673,3.229-8.146,5.176c0,0,6.515-3.65,7.988-3.808c0,0-1.052,8.941-0.789,11.624c0,0-0.105-16.305,8.941-24.09l0.084-0.103
		c0.22,0.271,0.488,0.597,0.796,0.969c-0.166,4.741-0.268,27.82,0.296,32.078c0,0,0.315-24.859,0.817-30.749
		c9.241,10.963,39.435,45.476,39.435,45.476L71.436,71.053z M38.264,24.636c-1.599,0.125-2.594,0.214-2.593,0.214l-2.471,0.625
		c-0.466-0.509-0.9-0.984-1.287-1.405L38.264,24.636z"/>
	<path fill="#FFFFFF" d="M38.685,36.759"/>
	<g>
		<path fill="#FFFFFF" d="M44.742,37.769l3.946-5.078l-1.473-1.122v-1.403c0,0,18.162,1.963,17.321,5.47c0,0-3.646,3.646,1.824,5.33
			c0,0,2.652,1.972,3.354,7.723l-11.07-0.287l11.28,1.569c1.299,19.562,0.604,19.31,0.604,17.899
			C45.414,39.049,47.094,40.39,44.742,37.769z"/>
		<path fill="#FFFFFF" d="M70.715,70.421c0,0-26.545-31.026-27.387-31.447c0,0-3.81,4.907-5.352,9.046c0,0,5.19,2.317-1.263,3.718
			c0,0-1.263,3.366-0.982,5.892l5.47,2.666c0,0,2.246-4.07,2.666,0c0,0,7.152,3.225,12.692,3.925c0,0,0.201-5.967,4.269,2.028
			C60.828,66.248,68.33,70.563,70.715,70.421z"/>
		<path fill="#FFFFFF" d="M37.804,38.679c0,0,1.157-2.595,3.366-2.438c0,0,1.104,1.104-0.894,4.366c0,0-0.684,1.157-2.472,1.104
			C37.804,41.711,36.7,40.958,37.804,38.679z"/>
		<path fill="#FFFFFF" d="M37.212,41.948c0,0,1.157,9.468-4.366,13.412c0,0-2.735-0.21-2.051-2.052c0,0,1.999-4.207,1.473-7.152
			C32.268,46.156,34.793,39.476,37.212,41.948z"/>
		<path fill="#FFFFFF" d="M30.27,46.787c0,0,0.473,5.26-1,6.891c0,0-6.837-2.788-9.257-7.364c0,0,0.42-2.998,2.682-0.736
			C22.695,45.577,27.376,48.522,30.27,46.787z"/>
		<ellipse fill="#FFFFFF" cx="25.799" cy="44.389" rx="1.525" ry="1.399"/>
		<ellipse fill="#FFFFFF" cx="49.028" cy="27.037" rx="2.401" ry="1.709"/>
		<ellipse fill="#FFFFFF" cx="55.49" cy="23.854" rx="1.236" ry="1.104"/>
		<path fill="#FFFFFF" d="M54.254,28.01c0,0,2.893-0.368,3.944-3.051c0,0,3.419,1.104,3.262,5.207c0,0-6.102-0.684-7.469-1.42
			L54.254,28.01z"/>
		<ellipse fill="#FFFFFF" cx="18.698" cy="42.132" rx="1.315" ry="1.184"/>
	</g>
	<path fill="#83993F" d="M17.308,14.066c0,0,1.881-1.482,3.498-2.498c0,0-1.578-0.842-1.972-0.263
		C18.833,11.305,16.44,13.935,17.308,14.066z"/>
</g>
</svg>
