<?xml version="1.0" encoding="utf-8"?>
<!-- Generator: Adobe Illustrator 16.0.0, SVG Export Plug-In . SVG Version: 6.00 Build 0)  -->
<!DOCTYPE svg PUBLIC "-//W3C//DTD SVG 1.1//EN" "http://www.w3.org/Graphics/SVG/1.1/DTD/svg11.dtd">
<svg version="1.1" id="Layer_1" xmlns="http://www.w3.org/2000/svg" xmlns:xlink="http://www.w3.org/1999/xlink" x="0px" y="0px"
	 width="50px" height="50px" viewBox="0 0 50 50" enable-background="new 0 0 50 50" xml:space="preserve">
<g>
	<circle fill="none" stroke="#4D4D4D" stroke-width="1.9435" stroke-miterlimit="10" cx="25" cy="25" r="22.269"/>
	<path fill="none" stroke="#000000" stroke-width="2.0815" stroke-miterlimit="10" d="M29.297,11.519"/>
	<path fill="none" stroke="#4D4D4D" stroke-width="1.8213" stroke-miterlimit="10" d="M28.139,10.19c0,0,3.193,1.583,2.943,4.442
		c0,0,0.287,2.392-3.836,3.282c-0.23,0.05-0.475,0.095-0.734,0.136c-0.884,0.136-1.943,0.209-3.204,0.191
		c0,0-6.858-0.36-10.163,5.608c0,0-3.053,5.581,1.001,10.663c0,0,6.386,8.329,19.241-0.334c0,0-9.468,2.221-12.078-1.11l2.496-0.977
		c0,0-5.439-0.745-3.773-4.243c0,0,0.916-2.027,5.275-2.25c0,0,6.359-0.555,9.052-4.858c0,0,1.809-2.312,0.998-6.275
		C34.83,11.884,31.582,9.191,28.139,10.19z"/>
	<path fill="#4D4D4D" d="M31.082,14.633c0,0,0.283,2.378-3.803,3.275l2.311,0.396h1.299l-1.17,2.016l2.211-0.585l-1.494,2.721
		l2.311,0.143c0.609-0.525,1.162-1.138,1.613-1.856c0,0,1.809-2.312,0.998-6.275c-0.527-2.582-3.775-5.274-7.219-4.275
		C28.139,10.19,31.332,11.773,31.082,14.633z"/>
</g>
</svg>
