<?xml version="1.0" encoding="utf-8"?>
<!-- Generator: Adobe Illustrator 16.0.0, SVG Export Plug-In . SVG Version: 6.00 Build 0)  -->
<!DOCTYPE svg PUBLIC "-//W3C//DTD SVG 1.1//EN" "http://www.w3.org/Graphics/SVG/1.1/DTD/svg11.dtd">
<svg version="1.1" id="Layer_1" xmlns="http://www.w3.org/2000/svg" xmlns:xlink="http://www.w3.org/1999/xlink" x="0px" y="0px"
	 width="16px" height="16px" viewBox="0 0 16 16" enable-background="new 0 0 16 16" xml:space="preserve">
<g>
	<path fill="#ED3232" d="M6.699,0.458c0,0,5.314,2.327,3.727,7.176c0,0-0.471,1.986-2.252,4.083c0,0-1.312,1.84-0.456,3.824
		c0,0-6.301-1.883-5.26-5.978c0,0,0.175-1.412,2.022-3.328C4.862,5.882,7.493,3.18,6.699,0.458z"/>
	<path fill="#ED3232" d="M11.488,6.37c0,0,2.63,3.728,0.26,6.4c0,0-0.636,0.744-1.965,1.529c0,0-0.563,0.321-1.25,1.039
		c0,0-0.984-1.562,1.532-4.556C10.065,10.782,11.486,8.979,11.488,6.37z"/>
</g>
</svg>
