<?xml version="1.0" encoding="utf-8"?>
<!-- Generator: Adobe Illustrator 16.0.0, SVG Export Plug-In . SVG Version: 6.00 Build 0)  -->
<!DOCTYPE svg PUBLIC "-//W3C//DTD SVG 1.1//EN" "http://www.w3.org/Graphics/SVG/1.1/DTD/svg11.dtd">
<svg version="1.1" id="Layer_1" xmlns="http://www.w3.org/2000/svg" xmlns:xlink="http://www.w3.org/1999/xlink" x="0px" y="0px"
	 width="16px" height="16px" viewBox="0 0 16 16" enable-background="new 0 0 16 16" xml:space="preserve">
<g>
	<defs>
		<path id="SVGID_1_n4" d="M2.247,3.75h8.628c0,0,0.605,0.523,0.605,2.021c0,0,0.035,1.451-0.605,2.021H2.247
			c0,0,0.53-0.454,0.53-2.098C2.776,5.693,2.842,4.362,2.247,3.75L2.247,3.75z M11.709,5.149c0,0,0.125,0.596,0,1.32h0.605
			c0,0,0.248-0.759,0-1.32H11.709L11.709,5.149z M1.565,4.916c0,0,0.265-1.163,0.53-0.854c0,0,0.355,0.63,0.378,1.709
			c0,0-0.023,1.344-0.303,1.632c0,0-0.095,0.3-0.379-0.078c0,0-0.241-0.497-0.227-0.699h0.454c-0.005,0,0.546-0.643,0.073-1.71
			C2.095,4.916,1.565,4.916,1.565,4.916L1.565,4.916z M1.111,5.149h0.833c0,0,0.237,0.499,0,1.243H1.035
			C1.035,6.392,0.827,5.586,1.111,5.149L1.111,5.149z M2.853,8.179h1.286c0,0,0.276,1.063,1.363,1.088c0,0,3.582,0.675,4.314,2.331
			l3.635-1.554c0,0-0.676-0.657-1.592-0.777c0,0-1.986,0.188-2.422-1.088h1.135c0,0,0.088,0.533,1.516,0.467
			c0,0,1.639-0.108,2.951,1.864l-5.678,2.564c0,0-0.326-1.39-2.421-2.331c0,0-1.182-0.37-1.59-0.466
			C5.35,10.278,3.264,10.088,2.853,8.179L2.853,8.179z"/>
	</defs>
	<use xlink:href="#SVGID_1_n4"  overflow="visible" fill-rule="evenodd" clip-rule="evenodd"/>
	<clipPath id="SVGID_2_">
		<use xlink:href="#SVGID_1_"  overflow="visible"/>
	</clipPath>
</g>
</svg>
