<?xml version="1.0" encoding="utf-8"?>
<!-- Generator: Adobe Illustrator 16.0.0, SVG Export Plug-In . SVG Version: 6.00 Build 0)  -->
<!DOCTYPE svg PUBLIC "-//W3C//DTD SVG 1.1//EN" "http://www.w3.org/Graphics/SVG/1.1/DTD/svg11.dtd">
<svg version="1.1" id="Layer_1" xmlns="http://www.w3.org/2000/svg" xmlns:xlink="http://www.w3.org/1999/xlink" x="0px" y="0px"
	 width="50px" height="50px" viewBox="0 0 50 50" enable-background="new 0 0 50 50" xml:space="preserve">
<g>
	<path fill="none" stroke="#4D4D4D" stroke-width="1.7006" stroke-miterlimit="10" d="M37.705,25.787
		c0,0-8.381-10.307-17.779-15.758c0,0-7.831,14.895,1.732,29.291C21.659,39.32,24.95,26.706,37.705,25.787z"/>
	<path fill="#4D4D4D" d="M31.598,27.328c1.742-0.808,3.766-1.372,6.107-1.541c0,0-8.381-10.307-17.779-15.758
		c0,0,0.301,0.383-0.08,1.292C21.993,13.494,26.896,17.955,31.598,27.328z"/>
	<path fill="none" stroke="#4D4D4D" stroke-width="1.9435" stroke-miterlimit="10" d="M47.27,25.002
		C47.27,37.3,37.299,47.27,25,47.27c-12.299,0-22.27-9.97-22.27-22.268c0-0.885,0.051-1.756,0.15-2.611
		C4.174,11.321,13.584,2.73,25,2.73C37.299,2.73,47.27,12.701,47.27,25.002z"/>
</g>
</svg>
