<?xml version="1.0" encoding="utf-8"?>
<!-- Generator: Adobe Illustrator 16.0.0, SVG Export Plug-In . SVG Version: 6.00 Build 0)  -->
<!DOCTYPE svg PUBLIC "-//W3C//DTD SVG 1.1//EN" "http://www.w3.org/Graphics/SVG/1.1/DTD/svg11.dtd">
<svg version="1.1" id="Layer_1" xmlns="http://www.w3.org/2000/svg" xmlns:xlink="http://www.w3.org/1999/xlink" x="0px" y="0px"
	 width="50px" height="50px" viewBox="0 0 50 50" enable-background="new 0 0 50 50" xml:space="preserve">
<g>
	<g>
		<path fill="#4D4D4D" d="M32.324,14.584c-0.262,0.578-0.965,3.535,0.863,5.498c1.955,2.1,3.344,7.498,3.344,7.498
			c1.078-0.799,1.188-1.942,1.188-1.942c2.049,3.885,0,8.227,0,8.227c-6.523-6.15-15.215-6.958-19.331-6.958
			c-1.465,0-2.351,0.103-2.351,0.103c-1.306,0.084-4.099,0.8-4.099,0.8c0.971-2.742,2.049-2.742,2.049-2.742
			c-2.049-1.942-2.049-6.513-2.049-6.513c1.11,1.977,3.95,1.856,7.594,4.505c1.393,1.012,2.884,1.14,3.551,1.14
			c0.227,0,0.358-0.015,0.358-0.015c-1.063-1.203-0.447-4.002,0-5.63c0.5-2.171,0-3.97,0-3.97c2.226,0.6,2.951,2.713,2.951,3.293
			c-0.107,3.551,3.127,4.775,3.127,4.775C27.471,17.84,32.324,14.584,32.324,14.584 M35.895,10.362l-4.412,2.966
			c-1.195,0.803-2.836,2.454-3.58,4.635c0.002-0.013,0.002-0.026,0.002-0.04c0-1.321-1.193-4.023-4.069-4.799l-2.561-0.689
			l0.71,2.555c0.002,0.006,0.38,1.469-0.01,3.196c-0.453,1.657-0.664,3.031-0.631,4.159c-0.303-0.122-0.617-0.287-0.923-0.51
			c-1.831-1.33-3.455-2.009-4.761-2.554c-1.355-0.565-2.078-0.889-2.403-1.468l-2.83-5.038v5.778c0,0.44,0.048,3.749,1.438,6.198
			c-0.463,0.559-0.934,1.372-1.351,2.552l-0.946,2.673l2.746-0.703c0.739-0.189,2.867-0.694,3.82-0.756l0.039-0.002l0.038-0.005
			c0.006-0.001,0.833-0.093,2.177-0.093c4.239,0,12.252,0.851,18.293,6.546l1.516,1.43l0.889-1.884
			c0.096-0.205,2.344-5.076-0.031-9.577l-2.363-4.483l-0.217,2.28c-0.586-1.372-1.324-2.757-2.182-3.678
			c-1.23-1.322-0.73-3.505-0.588-3.852L35.895,10.362L35.895,10.362z"/>
	</g>
	<path fill="#4D4D4D" d="M9.976,27.066l-1.012,4.091c0,0,22.217-1.059,28.577,7.542l1.916-4.272
		C39.457,34.427,30.754,23.633,9.976,27.066z"/>
	<path fill="none" stroke="#4D4D4D" stroke-width="1.9435" stroke-miterlimit="10" d="M47.27,25.002
		C47.27,37.3,37.299,47.27,25,47.27c-12.299,0-22.27-9.97-22.27-22.268c0-0.885,0.052-1.756,0.151-2.611
		C4.173,11.321,13.583,2.73,25,2.73C37.299,2.73,47.27,12.701,47.27,25.002z"/>
</g>
</svg>
